<svg id="Icone-Instagram" xmlns="http://www.w3.org/2000/svg" width="32.505" height="32.506" viewBox="0 0 32.505 32.506">
  <path id="Caminho_1189" data-name="Caminho 1189" d="M15.236,0h2.032a1.654,1.654,0,0,0,.244.052A15.472,15.472,0,0,1,24.571,2.3a16.042,16.042,0,0,1,7.685,11.155c.11.589.167,1.19.249,1.785v2.032c-.026.209-.055.416-.078.625a16.291,16.291,0,0,1-13.344,14.36c-.6.109-1.21.169-1.815.252H15.235c-.4-.049-.795-.092-1.19-.148a15.937,15.937,0,0,1-8.033-3.494,16.02,16.02,0,0,1-5.76-9.779c-.109-.6-.17-1.211-.252-1.816V15.236c.025-.209.054-.416.077-.625A16,16,0,0,1,4.051,5.529,15.926,15.926,0,0,1,13.484.245C14.065.144,14.653.081,15.236,0Zm1.046,6.872c0,.038,0,.076,0,.112-1.343,0-2.687-.024-4.03.008a5.566,5.566,0,0,0-3.032.893A5.012,5.012,0,0,0,7,12.193c-.055,2.706-.034,5.415,0,8.122a5.33,5.33,0,0,0,.889,2.969A5.018,5.018,0,0,0,12.194,25.5c2.706.055,5.416.047,8.122,0a5.121,5.121,0,0,0,3.856-1.65,5.355,5.355,0,0,0,1.339-3.609c.05-2.221.055-4.442.057-6.665,0-.655-.048-1.311-.114-1.963a4.9,4.9,0,0,0-4.578-4.562c-1.526-.127-3.063-.127-4.595-.186Z" fill="#34bdad"/>
  <path id="Caminho_1190" data-name="Caminho 1190" d="M83.132,90.724c-1.406-.04-2.814-.044-4.216-.128a3.247,3.247,0,0,1-3.325-3.34c-.077-2.831-.054-5.667,0-8.5a3.126,3.126,0,0,1,1.722-2.845,4.343,4.343,0,0,1,2.055-.462c2.664,0,5.33-.031,7.993.053a3.205,3.205,0,0,1,3.309,3.313q.112,4.231,0,8.466A3.267,3.267,0,0,1,87.383,90.6c-.706.05-1.415.069-2.124.083s-1.417,0-2.126,0v.04Zm4.788-7.688a4.789,4.789,0,1,0-4.8,4.8A4.781,4.781,0,0,0,87.92,83.036Zm1.308-4.973a1.115,1.115,0,1,0-1.134,1.112A1.112,1.112,0,0,0,89.228,78.063Z" transform="translate(-66.879 -66.792)" fill="#34bdad"/>
  <path id="Caminho_1191" data-name="Caminho 1191" d="M117.716,114.61a3.11,3.11,0,1,1-3.106,3.108,3.112,3.112,0,0,1,3.106-3.108Z" transform="translate(-101.467 -101.467)" fill="#34bdad"/>
</svg>
