<svg id="Icone-Youtube" xmlns="http://www.w3.org/2000/svg" width="32.505" height="32.506" viewBox="0 0 32.505 32.506">
  <path id="Caminho_1194" data-name="Caminho 1194" d="M15.236,0h2.032a1.654,1.654,0,0,0,.244.052A15.472,15.472,0,0,1,24.571,2.3a16.042,16.042,0,0,1,7.685,11.155c.11.589.167,1.189.249,1.785v2.032c-.026.209-.055.416-.078.625a16.291,16.291,0,0,1-13.344,14.36c-.6.109-1.21.169-1.815.252H15.235c-.4-.049-.795-.092-1.19-.148a15.937,15.937,0,0,1-8.033-3.494,16.02,16.02,0,0,1-5.76-9.779c-.109-.6-.17-1.211-.252-1.816V15.236c.025-.209.054-.416.077-.625A16,16,0,0,1,4.051,5.529,15.921,15.921,0,0,1,13.484.245C14.065.144,14.653.081,15.236,0Zm1.081,23.433c0-.024,0-.048,0-.072.222,0,.445.009.666,0,2.228-.1,4.458-.175,6.683-.328a2.412,2.412,0,0,0,2.361-2.143,29.592,29.592,0,0,0,.338-3.339,25.858,25.858,0,0,0-.28-5.724,2.591,2.591,0,0,0-2.472-2.354c-.955-.108-1.916-.185-2.877-.226A90.644,90.644,0,0,0,9.262,9.4a2.765,2.765,0,0,0-2.9,2.727,27.233,27.233,0,0,0-.234,5.318A31.29,31.29,0,0,0,6.5,20.977a2.386,2.386,0,0,0,2.038,2,6.079,6.079,0,0,0,.941.132C11.755,23.222,14.037,23.327,16.318,23.433Z" fill="#34bdad"/>
  <path id="Caminho_1195" data-name="Caminho 1195" d="M129.493,118.3l-5.273,3.037V115.26Z" transform="translate(-109.975 -102.043)" fill="#34bdad"/>
</svg>
