<svg id="Icone-WhatsApp" xmlns="http://www.w3.org/2000/svg" width="32.505" height="32.506" viewBox="0 0 32.505 32.506">
  <path id="Caminho_1192" data-name="Caminho 1192" d="M15.236,0h2.032a1.654,1.654,0,0,0,.244.052A15.472,15.472,0,0,1,24.571,2.3a16.042,16.042,0,0,1,7.685,11.155c.11.589.167,1.189.249,1.785v2.032c-.026.209-.055.416-.078.625a16.295,16.295,0,0,1-13.346,14.36c-.6.109-1.21.169-1.815.252H15.234c-.4-.049-.795-.092-1.19-.148a15.937,15.937,0,0,1-8.033-3.494A16.024,16.024,0,0,1,.252,19.085c-.109-.6-.17-1.211-.252-1.816V15.236c.025-.209.054-.416.077-.625A16,16,0,0,1,4.051,5.529,15.926,15.926,0,0,1,13.484.245C14.065.144,14.653.081,15.236,0ZM6.794,25.865c.138-.03.239-.048.336-.075,1.522-.4,3.043-.8,4.569-1.186a.75.75,0,0,1,.477.049,9.726,9.726,0,1,0-4.557-4.922,2.581,2.581,0,0,1,.167,2.557c-.377,1.16-.657,2.353-.991,3.577Z" fill="#34bdad"/>
  <path id="Caminho_1193" data-name="Caminho 1193" d="M74.84,84.61c.209-.768.374-1.508.615-2.223a1.493,1.493,0,0,0-.157-1.352,8.077,8.077,0,1,1,8.452,3.956,8.219,8.219,0,0,1-5.619-1.018.735.735,0,0,0-.493-.07c-.862.205-1.719.438-2.578.661C75,84.578,74.945,84.589,74.84,84.61Zm10.02-2.9a3.156,3.156,0,0,0,.446-.031c1.141-.237,1.962-.886,1.923-2.094a.451.451,0,0,0-.166-.337c-.666-.342-1.345-.661-2.023-.978a.4.4,0,0,0-.544.175c-.211.29-.452.558-.673.842a.424.424,0,0,1-.556.143,6.644,6.644,0,0,1-3.3-2.842A.4.4,0,0,1,80,76.071a6.4,6.4,0,0,0,.565-.763.616.616,0,0,0,.073-.466c-.249-.662-.529-1.312-.812-1.959-.05-.116-.163-.269-.267-.288a1.375,1.375,0,0,0-1.289.2,2.727,2.727,0,0,0-.845,2.623,5.728,5.728,0,0,0,1.225,2.37,9.867,9.867,0,0,0,3.8,3.23,5.954,5.954,0,0,0,2.415.689Z" transform="translate(-65.71 -61.051)" fill="#34bdad"/>
</svg>
