<svg id="Icone-Facebook" xmlns="http://www.w3.org/2000/svg" width="32.506" height="32.507" viewBox="0 0 32.506 32.507">
  <path id="Icone-Facebook-2" data-name="Icone-Facebook" d="M16.5,32.507H15.235a1.423,1.423,0,0,0-.212-.05,15.167,15.167,0,0,1-5.605-1.467A16.051,16.051,0,0,1,.253,19.081C.135,18.482.083,17.87,0,17.264V15.232c.025-.209.054-.416.077-.625A15.719,15.719,0,0,1,4.121,5.45,15.875,15.875,0,0,1,18.89.213a15.119,15.119,0,0,1,8.591,4.306A15.748,15.748,0,0,1,32.129,19.6a15.76,15.76,0,0,1-8.361,11.064,14.146,14.146,0,0,1-3.007,1.2V19.848h3.479c.177-1.368.35-2.7.527-4.082H20.753c0-1-.018-1.962.006-2.923a1.485,1.485,0,0,1,1.581-1.61c.728-.034,1.46-.017,2.189-.024h.334V7.564a18.909,18.909,0,0,0-3.875-.091,5.985,5.985,0,0,0-1.845.521,4.553,4.553,0,0,0-2.563,4.09c-.079,1.1-.033,2.2-.044,3.3v.4H13.065v4.057h3.472v.376q0,5.97,0,11.941c0,.115-.021.229-.031.344Z" transform="translate(0 -0.002)" fill="#34bdad"/>
</svg>
